<?xml version="1.0" encoding="UTF-8"?>
<!DOCTYPE svg PUBLIC "-//W3C//DTD SVG 1.1//EN" "http://www.w3.org/Graphics/SVG/1.1/DTD/svg11.dtd">
<!-- Creator: CorelDRAW -->
<svg xmlns="http://www.w3.org/2000/svg" xml:space="preserve" width="512px" height="512px" version="1.1" style="shape-rendering:geometricPrecision; text-rendering:geometricPrecision; image-rendering:optimizeQuality; fill-rule:evenodd; clip-rule:evenodd"
viewBox="0 0 512 512"
 xmlns:xlink="http://www.w3.org/1999/xlink">
 <defs>
  <style type="text/css">
   <![CDATA[
    .fil0 {fill:#4D4D4D}
    .fil2 {fill:#7ED63F}
    .fil4 {fill:#99A4AC}
    .fil1 {fill:#F1F1F1}
    .fil3 {fill:#FFE600}
   ]]>
  </style>
 </defs>
 <g id="Layer_x0020_1">
  <metadata id="CorelCorpID_0Corel-Layer"/>
  <path class="fil0" d="M316 420l-175 0c-12,0 -22,-9 -22,-21l0 -134c0,-11 10,-21 22,-21l17 0 0 -34c0,-39 32,-70 71,-70 38,0 70,31 70,70l0 34 18 0c11,0 21,9 21,21l0 5c30,4 54,30 54,62 0,32 -24,58 -55,62l0 5c0,12 -9,21 -21,21zm82 -331c8,0 8,13 0,13 -9,0 -10,-13 0,-13zm36 0c9,0 9,13 0,13 -9,0 -9,-13 0,-13zm37 0c9,0 9,13 0,13 -9,0 -9,-13 0,-13zm26 37l-482 0 0 307 482 0 0 -307zm-482 -15l482 0 0 -33 -482 0 0 33zm490 337l-498 0c-4,0 -7,-3 -7,-8l0 -369c0,-4 3,-7 7,-7l498 0c4,0 7,3 7,7l0 370c0,4 -4,7 -7,7zm-179 -94c-11,0 -10,-19 0,-29l11 -11c0,-3 0,-4 -2,-5 -2,-2 -10,-5 -11,6 -2,10 -16,7 -15,-2 7,-33 43,-22 43,-1 0,12 -10,16 -16,23 -5,7 3,19 -10,19zm0 7c8,0 8,13 0,13 -10,0 -9,-13 0,-13zm-80 -10c-10,0 -19,-9 -19,-19 0,-25 38,-26 38,0 0,11 -8,19 -19,19zm0 -23c-6,0 -5,9 0,9 6,0 6,-9 0,-9zm-45 23c-11,0 -19,-9 -19,-19 0,-26 39,-25 38,0 0,11 -9,19 -19,19zm0 -23c-6,0 -6,9 0,9 6,0 6,-9 0,-9zm-46 23c-25,0 -25,-38 0,-38 26,0 25,38 0,38zm0 -23c-6,0 -6,9 0,9 6,0 6,-9 0,-9zm178 -43c-3,0 -4,0 -5,0 -25,1 -45,21 -45,47 0,27 22,48 50,48 25,-2 45,-22 45,-48 0,-25 -20,-46 -45,-47zm-10 -15c0,-14 -2,-12 -31,-12l-151 0c-4,0 -7,3 -7,7l0 134c0,4 3,7 7,7l176 0c7,0 6,-8 6,-12 -31,-4 -55,-30 -55,-62 0,-31 24,-58 55,-62zm-150 -26l111 0 0 -34c0,-31 -25,-56 -56,-56 -30,0 -55,25 -55,56l0 34z"/>
  <path class="fil1" d="M317 244c11,0 21,9 21,21l0 5c30,4 54,30 54,62 0,32 -24,58 -55,62l0 5c0,12 -9,21 -21,21l-175 0c-12,0 -22,-9 -22,-21l0 -134c0,-11 10,-21 22,-21l17 0 0 -34c0,-39 32,-70 71,-70 38,0 70,31 70,70l0 34 18 0zm180 -118l-482 0 0 307 482 0 0 -307z"/>
  <path class="fil2" d="M352 312c0,12 -10,16 -16,23 -5,7 3,19 -10,19 -11,0 -10,-19 0,-29l11 -11c0,-3 0,-4 -2,-5 -2,-2 -10,-5 -11,6 -2,10 -16,7 -15,-2 7,-33 43,-22 43,-1zm26 20c0,-25 -20,-46 -45,-47 -3,0 -4,0 -5,0 -25,1 -45,21 -45,47 0,27 22,48 50,48 25,-2 45,-22 45,-48zm-52 29c8,0 8,13 0,13 -10,0 -9,-13 0,-13z"/>
  <path class="fil3" d="M268 332c0,-31 24,-58 55,-62 0,-14 -2,-12 -31,-12l-151 0c-4,0 -7,3 -7,7l0 134c0,4 3,7 7,7l176 0c7,0 6,-8 6,-12 -31,-4 -55,-30 -55,-62zm-41 0c0,-25 38,-26 38,0 0,11 -8,19 -19,19 -10,0 -19,-9 -19,-19zm-45 0c0,-26 39,-25 38,0 0,11 -9,19 -19,19 -11,0 -19,-9 -19,-19zm-27 -19c26,0 25,38 0,38 -25,0 -25,-38 0,-38z"/>
  <path class="fil1" d="M173 244l111 0 0 -34c0,-31 -25,-56 -56,-56 -30,0 -55,25 -55,56l0 34z"/>
  <path class="fil2" d="M201 328c-6,0 -6,9 0,9 6,0 6,-9 0,-9z"/>
  <path class="fil2" d="M246 328c-6,0 -5,9 0,9 6,0 6,-9 0,-9z"/>
  <path class="fil2" d="M155 337c6,0 6,-9 0,-9 -6,0 -6,9 0,9z"/>
  <path class="fil4" d="M15 111l482 0 0 -33 -482 0 0 33zm383 -9c-9,0 -10,-13 0,-13 8,0 8,13 0,13zm36 0c-9,0 -9,-13 0,-13 9,0 9,13 0,13zm37 0c-9,0 -9,-13 0,-13 9,0 9,13 0,13z"/>
 </g>
</svg>
