<svg xmlns="http://www.w3.org/2000/svg" viewBox="0 0 48 48"><defs><style>.cls-1{fill:#fd3730;}.cls-2{fill:#d3241f;}.cls-3{fill:#eaeff0;}</style></defs><title>Health Sciences</title><g id="_31_-_40" data-name="31 - 40"><g id="Health_Sciences" data-name="Health Sciences"><path class="cls-1" d="M42.1,9.727A13.32,13.32,0,0,0,24,9.068,13.3,13.3,0,0,0,5.9,28.538L19.778,42.42a5.97,5.97,0,0,0,8.444,0L42.1,28.538a13.3,13.3,0,0,0,0-18.811Z"></path><path class="cls-2" d="M31,35A19.971,19.971,0,0,1,13.145,6.025,13.287,13.287,0,0,0,5.9,28.538L19.778,42.42a5.97,5.97,0,0,0,8.444,0L36.4,34.241A19.965,19.965,0,0,1,31,35Z"></path><path class="cls-3" d="M21,34a1,1,0,0,1-.94-.658l-3.1-8.538-1.027,2.567A1,1,0,0,1,15,28H2a1,1,0,0,1,0-2H14.323l1.748-4.371A1.019,1.019,0,0,1,17.016,21a1,1,0,0,1,.924.658l2.969,8.165,3.633-12.11a1,1,0,0,1,1.91-.019L30.1,29.051l.968-2.422A1,1,0,0,1,32,26H46a1,1,0,0,1,0,2H32.677l-1.748,4.371a.94.94,0,0,1-.964.628,1,1,0,0,1-.917-.693L25.533,21.37,21.958,33.287a1,1,0,0,1-.929.713Z"></path></g></g></svg>