<svg width="24" height="25" viewBox="0 0 24 25" fill="none" xmlns="http://www.w3.org/2000/svg">
<path fill-rule="evenodd" clip-rule="evenodd" d="M8.25 21.0566C8.25 20.6424 8.58579 20.3066 9 20.3066H15C15.4142 20.3066 15.75 20.6424 15.75 21.0566C15.75 21.4709 15.4142 21.8066 15 21.8066H9C8.58579 21.8066 8.25 21.4709 8.25 21.0566Z" fill="white"/>
<path fill-rule="evenodd" clip-rule="evenodd" d="M12.0003 4.57617C11.2148 4.57617 10.437 4.73088 9.71136 5.03147C8.98569 5.33205 8.32632 5.77263 7.77091 6.32804C7.2155 6.88345 6.77492 7.54282 6.47433 8.2685C6.17375 8.99418 6.01904 9.77195 6.01904 10.5574C6.01904 14.0192 5.2932 16.104 4.59668 17.3074H19.4039C18.7074 16.104 17.9815 14.0192 17.9815 10.5574C17.9815 9.77195 17.8268 8.99418 17.5262 8.2685C17.2257 7.54282 16.7851 6.88345 16.2297 6.32804C15.6743 5.77263 15.0149 5.33205 14.2892 5.03147C13.5635 4.73088 12.7858 4.57617 12.0003 4.57617ZM9.13734 3.64565C10.045 3.26968 11.0178 3.07617 12.0003 3.07617C12.9827 3.07617 13.9556 3.26968 14.8632 3.64565C15.7709 4.02162 16.5956 4.57268 17.2903 5.26738C17.985 5.96208 18.5361 6.7868 18.9121 7.69447C19.288 8.60214 19.4815 9.57497 19.4815 10.5574C19.4815 13.8074 20.1616 15.6225 20.7025 16.5566L20.7029 16.5574C20.8344 16.7851 20.9037 17.0432 20.9039 17.3061C20.9041 17.569 20.8353 17.8273 20.7043 18.0551C20.5732 18.283 20.3846 18.4724 20.1573 18.6045C19.93 18.7365 19.672 18.8065 19.4092 18.8074L19.4065 18.8074H4.59404L4.5914 18.8074C4.32854 18.8065 4.07054 18.7365 3.84325 18.6045C3.61595 18.4724 3.42735 18.283 3.29632 18.0551C3.16529 17.8273 3.09645 17.569 3.09668 17.3061C3.09691 17.0432 3.16622 16.7851 3.29765 16.5574L3.29809 16.5566C3.83893 15.6225 4.51904 13.8074 4.51904 10.5574C4.51904 9.57497 4.71255 8.60214 5.08851 7.69447C5.46448 6.7868 6.01555 5.96208 6.71025 5.26738C7.40494 4.57268 8.22967 4.02162 9.13734 3.64565Z" fill="white"/>
</svg>
